<svg>
	<symbol id="star" xmlns="http://www.w3.org/2000/svg" viewBox="0 0 243.3 243.3" style="enable-background: new 0 0 243.317 243.317" xml:space="preserve">
		<path d="M243 94c-1-3-3-5-6-5l-75-11-34-68a8 8 0 0 0-13 0L81 78 6 89a8 8 0 0 0-4 12l55 53-13 75a8 8 0 0 0 11 8l67-35 67 35 3 1a8 8 0 0 0 8-10l-13-74 54-53c2-2 3-5 2-7zm-69 52c-2 2-3 5-3 7l11 64-57-30c-2-2-5-2-7 0l-57 30 11-64c0-2 0-5-2-7l-46-45 63-9c3 0 5-2 6-4l29-58 28 58c1 2 3 4 6 4l64 9-46 45z" />
	</symbol>
	<symbol id="smile" xmlns="http://www.w3.org/2000/svg" viewBox="0 0 44 44" style="enable-background: new 0 0 44 44" xml:space="preserve">
		<path d="M22 0C9.869 0 0 9.869 0 22s9.869 22 22 22 22-9.869 22-22S34.131 0 22 0zm0 42C10.972 42 2 33.028 2 22S10.972 2 22 2s20 8.972 20 20-8.972 20-20 20z" />
		<circle cx="13.5" cy="14.5" r="3.5" />
		<circle cx="29.5" cy="14.5" r="3.5" />
		<path d="M33 24a1 1 0 0 0-1 1c0 5.514-4.486 10-10 10s-10-4.486-10-10a1 1 0 0 0-2 0c0 6.617 5.383 12 12 12s12-5.383 12-12a1 1 0 0 0-1-1z" />
	</symbol>
	<symbol id="tree" xmlns="http://www.w3.org/2000/svg" viewBox="0 0 470 470" style="enable-background: new 0 0 470 470" xml:space="preserve">
		<path d="M350.851 146.286a119.425 119.425 0 0 0 3.153-27.282C354.003 53.385 300.619 0 235 0S115.997 53.385 115.997 119.004c0 9.206 1.06 18.365 3.153 27.282-21.612 26.559-33.469 59.853-33.469 94.203 0 34.339 11.945 67.867 33.634 94.409 21.383 26.167 51.252 44.475 84.106 51.552a7.5 7.5 0 0 0 3.158-14.664c-61.362-13.217-105.898-68.435-105.898-131.298 0-32.077 11.495-63.132 32.366-87.443a7.5 7.5 0 0 0 1.55-6.842 104.289 104.289 0 0 1-3.6-27.2C130.997 61.656 177.652 15 235 15s104.003 46.656 104.003 104.004c0 9.208-1.211 18.36-3.6 27.2a7.5 7.5 0 0 0 1.55 6.842c20.872 24.311 32.366 55.366 32.366 87.443 0 62.862-44.537 118.081-105.898 131.298a7.5 7.5 0 0 0 3.158 14.663c32.854-7.076 62.723-25.385 84.106-51.552 21.689-26.542 33.634-60.071 33.634-94.409 0-34.35-11.857-67.644-33.468-94.203z" />
		<path d="M297.007 266.39a7.5 7.5 0 0 0 0-10.606 7.5 7.5 0 0 0-10.606 0l-43.901 43.9V129.3a7.5 7.5 0 0 0-15 0v108.397l-43.9-43.9a7.5 7.5 0 0 0-10.606 0 7.5 7.5 0 0 0 0 10.606l54.507 54.507V462.5a7.5 7.5 0 0 0 15 0V320.897l54.506-54.507zM162.5 290.5c0 4.411 3.589 8 8 8s8-3.589 8-8-3.589-8-8-8-8 3.589-8 8zM299.704 104c0-4.411-3.589-8-8-8s-8 3.589-8 8 3.589 8 8 8 8-3.589 8-8zM281 74.5c0-4.411-3.589-8-8-8s-8 3.589-8 8 3.589 8 8 8 8-3.589 8-8z" />
	</symbol>
	<symbol id="chat" xmlns="http://www.w3.org/2000/svg" viewBox="0 0 58 58" style="enable-background: new 0 0 58 58" xml:space="preserve">
		<path d="M29 1.5c-16.016 0-29 11.641-29 26 0 5.292 1.768 10.211 4.796 14.318C4.398 46.563 3.254 53.246 0 56.5c0 0 9.943-1.395 16.677-5.462l.022.009c2.764-1.801 5.532-3.656 6.105-4.126.3-.421.879-.548 1.33-.277.296.178.483.503.489.848.01.622-.005.784-5.585 4.421A31.914 31.914 0 0 0 29 53.5c16.016 0 29-11.641 29-26s-12.984-26-29-26z" />
	</symbol>
	<symbol id="bike" viewBox="0 0 24 24" xmlns="http://www.w3.org/2000/svg" aria-labelledby="bikeIconTitle" fill="#000000" stroke-width="2" stroke-linecap="round" stroke-linejoin="round" color="#000000">
		<circle cx="14" cy="6" r="1" />
		<path d="M12 18V14L9 12L12 9L14 11L16 12" />
		<circle cx="6" cy="17" r="3" />
		<circle cx="18" cy="17" r="3" />
	</symbol>
	<symbol id="package" version="1.1" xmlns="http://www.w3.org/2000/svg" viewBox="0 0 489.9 489.9" xmlns:xlink="http://www.w3.org/1999/xlink" enable-background="new 0 0 489.9 489.9">
		<path d="m484.7,87.75l-88.7-84.6c-2.1-2.1-4.2-3.1-7.3-3.1h-287.6c-3.1,0-5.2,1-7.3,3.1l-88.7,84.6c-2.4,2.9-5.1,7-5.1,13.4v378.3c0,6.3 4.2,10.4 10.4,10.4h469.1c6.3,0 10.4-4.2 10.4-10.4v-379.3c0-2.4-1.1-8.2-5.2-12.4zm-229.4-66.9h129.3l68.8,65.7h-198.1v-65.7zm-150.1,0h129.3v65.7h-198.1l68.8-65.7zm-84.4,215.8h89.6v104.2h-89.6c3.55271e-15,0 3.55271e-15-104.2 3.55271e-15-104.2zm448.2,104.2h-89.6v-104.2h89.6v104.2zm0-125.1h-100.1c-6.3,0-10.4,4.2-10.4,10.4v125.1c0,6.3 4.2,10.4 10.4,10.4h100.1v107.4h-448.2v-107.4h100.1c5.2,0 10.4-5.2 10.4-10.4v-125.1c0-6.3-4.2-10.4-10.4-10.4h-100.1v-108.4h448.2v108.4z" />
	</symbol>
	<symbol id="money" version="1.1" xmlns="http://www.w3.org/2000/svg" xmlns:xlink="http://www.w3.org/1999/xlink" x="0px" y="0px" viewBox="0 0 489.003 489.003" style="enable-background:new 0 0 489.003 489.003;" xml:space="preserve">
		<path d="M305.802,156.814c-33.8-19.5-88.4-19.5-122,0s-33.4,51.2,0.4,70.7s88.4,19.5,122,0
                        C339.802,207.914,339.602,176.314,305.802,156.814z M290.302,187.514c-2.9,0.9-5.8,1.9-8.7,2.8c-1.8,0.5-2.9,0.6-3.7,0.2
                        c-0.4-0.3-0.8-0.7-1.2-1.3c-1.9-3.1-4.8-5.8-8.7-8c-0.5-0.3-1.1-0.6-1.7-0.9c-1.3-0.7-2.5-1.2-4.1-1.6c-5.6-1.3-10.6,0.8-9.9,4.3
                        c0.3,1.8,1.3,3.4,2.5,5.1c2,2.8,4.2,5.6,5.6,8.6c4.7,9.4-5.5,18.7-21.9,19.6c-5.9,0.3-11.5-0.4-16.7-2.1c-2.3-0.7-4-0.7-5.7,0.5
                        c-1.7,1.1-3.6,2.1-5.4,3.1c-1.6,0.9-3.3,1-4.9,0.1c-1.2-0.6-2.3-1.3-3.5-1.9c-0.8-0.5-1.6-0.9-2.4-1.4c-1.7-1-1.5-2,0.1-3
                        c1.3-0.8,2.6-1.5,3.8-2.3c2.9-1.7,2.9-1.8,0.5-3.7c-3-2.4-5.7-4.9-7.4-7.7c-1.3-2.2-1-2.7,2.5-3.9c2.6-0.8,5.1-1.7,7.7-2.5
                        c1.9-0.6,3-0.7,3.8-0.3c0.5,0.3,0.8,0.7,1.2,1.4c1.7,3.2,4.6,6,8.1,8.7c0.6,0.5,1.3,0.9,1.9,1.3c1.9,1.1,4.1,1.9,6.6,2.5
                        c6.5,1.5,12.3-1.1,11.7-5.2c-0.2-1.4-0.9-2.6-1.8-3.9c-2.2-3.3-5.1-6.4-6.6-9.9c-2.4-5.6-1.3-10.7,6.4-14.7c8.8-4.5,18.6-4.8,29-2
                        c4.3,1.2,4.2,1.2,7.5-0.7c1.1-0.7,2.2-1.3,3.3-1.9c2.5-1.4,3.4-1.4,5.9,0c0.8,0.4,1.5,0.9,2.3,1.3c5.3,3,5.3,3,0.1,6.1
                        c-3.7,2.1-3.7,2.1-0.6,4.6c2.4,1.9,4.3,3.9,5.7,6.1C292.702,186.014,292.302,186.914,290.302,187.514z M350.902,253.314
                        c-9.3,5.4-24.4,5.4-33.8,0c-9.3-5.4-9.4-14.2-0.1-19.6c9.3-5.4,24.4-5.4,33.8,0C360.202,239.114,360.302,247.914,350.902,253.314z
                         M172.902,150.514c-9.3,5.4-24.4,5.4-33.8,0c-9.4-5.4-9.4-14.2-0.1-19.6c9.3-5.4,24.4-5.4,33.8,0
                        C182.102,136.314,182.202,145.114,172.902,150.514z M477.402,211.414l-266.5-153.9c-15.4-8.9-40.4-8.9-55.7,0l-142.9,83
                        c-15.3,8.9-15.2,23.4,0.2,32.3l266.5,153.9c15.4,8.9,40.4,8.9,55.7,0l142.8-83C492.902,234.814,492.802,220.314,477.402,211.414z
                         M337.602,297.414c-1.7-1.6-3.7-3.1-6.1-4.5c-15.6-9-40.9-9-56.4,0c-1.2,0.7-2.2,1.4-3.3,2.2l-206.9-119.5c2-0.8,3.9-1.7,5.7-2.7
                        c15.5-9,15.4-23.6-0.2-32.6c-1.7-1-3.5-1.9-5.4-2.6l85.3-49.6c1.3,1.1,2.8,2.1,4.5,3.1c15.6,9,40.9,9,56.4,0c1.8-1,3.3-2.1,4.7-3.3
                        l207.6,119.8c-2.8,1-5.3,2.1-7.7,3.5c-15.5,9-15.5,23.7,0.2,32.7c2.4,1.4,5.1,2.5,7.9,3.5L337.602,297.414z M5.502,203.614
                        c6.8-3.5,17.3-3,23.8,0.8l278.6,160.8l150.6-87.6c6.5-3.8,17.2-3.8,23.8,0c6.6,3.8,6.6,10,0.1,13.8l-160.1,93
                        c-7.8,4.6-20.6,4.6-28.5,0l-5.6-3.2l-3.9-2.3l-279.3-161.2C-1.798,213.814-1.698,207.314,5.502,203.614z M482.602,341.714
                        l-160.1,93c-7.8,4.6-20.6,4.6-28.5,0l-5.5-3.2l-4-2.3l-279.3-161.2c-6.8-3.9-6.6-10.4,0.6-14.1c6.7-3.5,17.3-3,23.8,0.8
                        l278.5,160.8l150.6-87.5c6.6-3.8,17.2-3.8,23.8,0C489.102,331.714,489.202,337.914,482.602,341.714z" />
	</symbol>
	<symbol id="card" version="1.1" xmlns="http://www.w3.org/2000/svg" xmlns:xlink="http://www.w3.org/1999/xlink" x="0px" y="0px" viewBox="0 0 92 92" enable-background="new 0 0 92 92" xml:space="preserve">
		<path id="XMLID_2192_" d="M92,23.4c0-4.1-3.3-7.4-7.4-7.4H7.4C3.3,16,0,19.3,0,23.4v45.3C0,72.7,3.3,76,7.4,76h77.3
                    c4.1,0,7.4-3.3,7.4-7.4V23.4z M84,24v7H8v-7H84z M8,68V43h76v25H8z M76.5,55c0,2.2-1.8,4-4,4h-19c-2.2,0-4-1.8-4-4s1.8-4,4-4h19
                    C74.7,51,76.5,52.8,76.5,55z" />
	</symbol>
	<symbol id="inst" xmlns="http://www.w3.org/2000/svg" viewBox="0 0 48 48" style="enable-background: new 0 0 48 48" xml:space="preserve">
		<path d="M40.4 5.5h-4.8A2.602 2.602 0 0 0 33 8.1v4.8c0 1.434 1.166 2.6 2.6 2.6h4.8c1.434 0 2.6-1.166 2.6-2.6V8.1c0-1.434-1.166-2.6-2.6-2.6zm.6 7.4a.6.6 0 0 1-.6.6h-4.8a.6.6 0 0 1-.6-.6V8.1a.6.6 0 0 1 .6-.6h4.8a.6.6 0 0 1 .6.6v4.8z" />
		<path d="M37.8.5H10.2C4.576.5 0 5.089 0 10.731V37.27C0 42.911 4.576 47.5 10.2 47.5h27.6c5.624 0 10.2-4.589 10.2-10.23V10.731C48 5.089 43.424.5 37.8.5zM46 37.27c0 4.538-3.679 8.23-8.2 8.23H10.2c-4.522 0-8.2-3.692-8.2-8.23V19.5h12.221A13.948 13.948 0 0 0 10 29.5c0 7.72 6.28 14 14 14s14-6.28 14-14c0-3.916-1.62-7.457-4.221-10H46v17.77zM36 29.5c0 6.617-5.383 12-12 12s-12-5.383-12-12 5.383-12 12-12 12 5.383 12 12zm-4.826-12c-2.101-1.261-4.55-2-7.174-2s-5.073.739-7.174 2H2v-6.769C2 6.192 5.679 2.5 10.2 2.5h27.6c4.521 0 8.2 3.692 8.2 8.231V17.5H31.174z" />
		<path d="M15 29.5c0 4.962 4.037 9 9 9s9-4.038 9-9-4.037-9-9-9-9 4.038-9 9zm16 0c0 3.86-3.141 7-7 7s-7-3.14-7-7 3.141-7 7-7 7 3.14 7 7z" />
	</symbol>
	<symbol id="favourite-mark" version="1.1" xmlns="http://www.w3.org/2000/svg" xmlns:xlink="http://www.w3.org/1999/xlink" x="0px" y="0px" viewBox="0 0 55.867 55.867" style="enable-background:new 0 0 55.867 55.867;" xml:space="preserve">
		<path d="M55.818,21.578c-0.118-0.362-0.431-0.626-0.808-0.681L36.92,18.268L28.83,1.876c-0.168-0.342-0.516-0.558-0.896-0.558
	s-0.729,0.216-0.896,0.558l-8.091,16.393l-18.09,2.629c-0.377,0.055-0.689,0.318-0.808,0.681c-0.117,0.361-0.02,0.759,0.253,1.024
	l13.091,12.76l-3.091,18.018c-0.064,0.375,0.09,0.754,0.397,0.978c0.309,0.226,0.718,0.255,1.053,0.076l16.182-8.506l16.18,8.506
	c0.146,0.077,0.307,0.115,0.466,0.115c0.207,0,0.413-0.064,0.588-0.191c0.308-0.224,0.462-0.603,0.397-0.978l-3.09-18.017
	l13.091-12.761C55.838,22.336,55.936,21.939,55.818,21.578z" />
	</symbol>
	<symbol id="logo" version="1.1" xmlns="http://www.w3.org/2000/svg" xmlns:xlink="http://www.w3.org/1999/xlink" x="0px" y="0px" viewBox="0 0 56 56" style="enable-background:new 0 0 56 56;" xml:space="preserve">
		<g>
			<circle cx="18.264" cy="29.609" r="1" />
			<circle cx="18.28" cy="34.609" r="1" />
			<circle cx="22.466" cy="30.195" r="1" />
			<circle cx="15.065" cy="45" r="1" />
			<circle cx="21.065" cy="50" r="1" />
			<circle cx="16.065" cy="50" r="1" />
			<circle cx="14.065" cy="38" r="1" />
			<circle cx="17.065" cy="40" r="1" />
			<circle cx="14.065" cy="33" r="1" />
			<circle cx="14.065" cy="27" r="1" />
			<circle cx="33.065" cy="26" r="1" />
			<circle cx="28.065" cy="27" r="1" />
			<circle cx="19.065" cy="25" r="1" />
			<circle cx="35.065" cy="22" r="1" />
			<circle cx="38.065" cy="25" r="1" />
			<circle cx="43.065" cy="23" r="1" />
			<circle cx="41.065" cy="29" r="1" />
			<circle cx="24.453" cy="26.189" r="1" />
			<path d="M39.343,32.743l-4.86-4.86l-6.662,1.813l-1.514,5.567l-5.539,1.506l-1.812,6.661l4.86,4.86l5.55-1.509l4.017,4.017
		l6.662-1.813l1.812-6.661L37.831,38.3L39.343,32.743z M29.45,31.324l4.438-1.207l3.22,3.22l-1.203,4.424l-4.452,1.211l-3.209-3.209
		L29.45,31.324z M21.191,42.836l1.207-4.438l4.438-1.206l3.197,3.197l-1.217,4.47l-4.405,1.197L21.191,42.836z M38.415,47.356
		l-4.438,1.207l-3.196-3.197l1.212-4.456l4.42-1.203l3.209,3.209L38.415,47.356z" />
			<path d="M43.286,10.39c-1.898-0.679-2.887-1.11-3.136-1.855c1.869-0.45,3.262-2.137,3.262-4.142V4.26c0-2.349-1.911-4.26-4.26-4.26
		H16.847c-2.349,0-4.26,1.911-4.26,4.26v0.133c0,1.992,1.375,3.669,3.265,4.133c-0.244,0.751-1.232,1.183-3.139,1.864
		c-2.861,1.023-6.779,2.425-6.779,7.709v1.749c0,0.332,0.165,0.642,0.439,0.828c0.274,0.185,0.624,0.224,0.932,0.101l0.846-0.338
		v25.267C8.152,51.382,12.77,56,18.447,56h19.106c5.677,0,10.295-4.618,10.295-10.295V22.37c0.224-0.058,0.446-0.131,0.656-0.244
		c0.963-0.516,1.561-1.514,1.561-2.605v-1.422C50.065,12.814,46.147,11.413,43.286,10.39z M45.848,45.705
		c0,4.574-3.721,8.295-8.295,8.295H18.447c-4.574,0-8.295-3.721-8.295-8.295V19.638l1.151-0.46c0.437-0.176,0.931-0.008,1.174,0.396
		l1.354,2.256c0.43,0.716,1.146,1.219,1.966,1.38c0.188,0.036,0.378,0.055,0.567,0.055c0.012,0,0.024-0.003,0.036-0.003
		c0.026,0,0.052-0.005,0.079-0.006c0.161-0.006,0.32-0.026,0.478-0.058c0.053-0.011,0.105-0.025,0.158-0.039
		c0.133-0.035,0.263-0.079,0.391-0.133c0.05-0.021,0.101-0.04,0.15-0.063c0.168-0.082,0.332-0.175,0.484-0.289l1.344-1.008
		c0.378-0.282,0.915-0.245,1.248,0.089l0.533,0.533c0.606,0.606,1.441,0.926,2.299,0.857c0.855-0.061,1.641-0.488,2.155-1.175
		l0.409-0.545c0.365-0.484,1.114-0.553,1.58,0.068c0.585,0.779,1.513,1.224,2.489,1.179c0.974-0.041,1.864-0.56,2.381-1.386
		l1.933-3.094c0.197-0.315,0.532-0.495,0.905-0.444c0.37,0.037,0.669,0.267,0.799,0.614l0.682,1.82
		c0.385,1.026,1.263,1.732,2.349,1.888c1.086,0.152,2.125-0.274,2.785-1.154l0.072-0.097c0.304-0.405,0.872-0.503,1.294-0.222
		l2.073,1.382c0.121,0.081,0.246,0.15,0.377,0.211V45.705z M48.065,19.521c0,0.517-0.353,0.761-0.505,0.842
		c-0.081,0.044-0.236,0.104-0.426,0.112l-0.152-0.021c-0.071-0.01-0.132-0.025-0.19-0.043c-0.07-0.025-0.14-0.046-0.212-0.095
		l-2.073-1.382c-0.326-0.218-0.68-0.362-1.043-0.436c-1.089-0.224-2.256,0.181-2.963,1.124l-0.072,0.097
		c-0.307,0.409-0.733,0.395-0.9,0.373c-0.168-0.024-0.58-0.133-0.759-0.61l-0.682-1.82c-0.398-1.061-1.345-1.789-2.473-1.902
		c-1.122-0.104-2.2,0.414-2.801,1.374l-1.933,3.094c-0.17,0.271-0.45,0.435-0.77,0.448c-0.311,0-0.613-0.126-0.855-0.448
		c-0.563-0.752-1.425-1.183-2.364-1.183s-1.801,0.431-2.364,1.183l-0.409,0.544c-0.169,0.226-0.417,0.36-0.697,0.381
		c-0.28,0.018-0.545-0.078-0.743-0.277l-0.533-0.533c-1.033-1.032-2.694-1.152-3.863-0.274l-1.343,1.008
		c-0.22,0.164-0.49,0.223-0.757,0.173c-0.269-0.053-0.495-0.211-0.636-0.446l-1.354-2.256c-0.123-0.205-0.273-0.382-0.433-0.546
		c-0.041-0.042-0.083-0.081-0.126-0.12c-0.152-0.138-0.314-0.262-0.489-0.364c-0.02-0.011-0.037-0.027-0.057-0.038
		c-0.193-0.107-0.398-0.185-0.609-0.246c-0.056-0.016-0.112-0.028-0.17-0.041c-0.182-0.041-0.367-0.066-0.555-0.072
		c-0.03-0.001-0.059-0.011-0.089-0.011c-0.012,0-0.025,0.003-0.037,0.003c-0.113,0.001-0.226,0.018-0.339,0.032
		c-0.066,0.009-0.132,0.009-0.198,0.022c-0.179,0.035-0.357,0.086-0.532,0.156l-2.625,1.051v-0.272c0-3.875,2.648-4.822,5.453-5.826
		c1.96-0.701,4.137-1.506,4.46-3.62h2.489c0.552,0,1-0.447,1-1s-0.448-1-1-1h-3.423c-0.012,0-0.021,0.006-0.033,0.007
		c-0.011,0-0.022-0.007-0.033-0.007c-1.246,0-2.26-1.014-2.26-2.26V4.26c0-1.246,1.014-2.26,2.26-2.26h22.306
		c1.246,0,2.26,1.014,2.26,2.26v0.133c0,1.246-1.014,2.26-2.326,2.26H26.862c-0.552,0-1,0.447-1,1s0.448,1,1,1h11.29
		c0.323,2.115,2.5,2.919,4.46,3.62c2.804,1.004,5.453,1.951,5.453,5.826V19.521z" />
		</g>
	</symbol>
	<symbol id="emptyStar" xmlns="http://www.w3.org/2000/svg" xmlns:xlink="http://www.w3.org/1999/xlink" version="1.1" x="0px" y="0px" viewBox="0 0 243.317 243.317" style="enable-background:new 0 0 243.317 243.317;" xml:space="preserve">
		<path d="M242.949,93.714c-0.882-2.715-3.229-4.694-6.054-5.104l-74.98-10.9l-33.53-67.941c-1.264-2.56-3.871-4.181-6.725-4.181  c-2.855,0-5.462,1.621-6.726,4.181L81.404,77.71L6.422,88.61C3.596,89.021,1.249,91,0.367,93.714  c-0.882,2.715-0.147,5.695,1.898,7.688l54.257,52.886L43.715,228.96c-0.482,2.814,0.674,5.658,2.983,7.335  c2.309,1.678,5.371,1.9,7.898,0.571l67.064-35.254l67.063,35.254c1.097,0.577,2.296,0.861,3.489,0.861c0.007,0,0.014,0,0.021,0  c0,0,0,0,0.001,0c4.142,0,7.5-3.358,7.5-7.5c0-0.629-0.078-1.24-0.223-1.824l-12.713-74.117l54.254-52.885  C243.096,99.41,243.832,96.429,242.949,93.714z M173.504,146.299c-1.768,1.723-2.575,4.206-2.157,6.639l10.906,63.581  l-57.102-30.018c-2.185-1.149-4.795-1.149-6.979,0l-57.103,30.018l10.906-63.581c0.418-2.433-0.389-4.915-2.157-6.639  l-46.199-45.031l63.847-9.281c2.443-0.355,4.555-1.889,5.647-4.103l28.55-57.849l28.55,57.849c1.092,2.213,3.204,3.748,5.646,4.103  l63.844,9.281L173.504,146.299z" />
	</symbol>
	<symbol id="house" version="1.1" xmlns="http://www.w3.org/2000/svg" xmlns:xlink="http://www.w3.org/1999/xlink" x="0px" y="0px" viewBox="0 0 459 459" style="enable-background:new 0 0 459 459;" xml:space="preserve">
		<g>
			<path d="M453,127.15H217.92l-53.481-42.977c-2.195-1.764-5.321-1.764-7.517,0L114,118.665V107.15c0-3.313-2.687-6-6-6H61
		c-3.313,0-6,2.687-6,6v58.927L2.242,208.473c-1.984,1.595-2.747,4.268-1.901,6.669S3.454,219.15,6,219.15h28v151
		c0,3.313,2.686,6,6,6h413c3.314,0,6-2.687,6-6v-237C459,129.836,456.314,127.15,453,127.15z M447,139.15v68H317.473l-84.62-68H447z
		 M67,113.15h35v15.158l-35,28.126V113.15z M160.681,96.547L298.317,207.15h-12.768l-121.107-97.321
		c-2.195-1.764-5.321-1.764-7.517,0L35.819,207.15H23.045L160.681,96.547z M232,364.15h-36v-92h36V364.15z M421,286.65H307v-14.5
		h114V286.65z M307,298.65h114v13.5H307V298.65z M307,324.15h114v13.5H307V324.15z M307,349.65h114v14.5H307V349.65z M447,364.15
		h-14v-98c0-3.313-2.687-6-6-6H301c-3.313,0-6,2.687-6,6v98h-51v-98c0-3.313-2.686-6-6-6h-48c-3.314,0-6,2.687-6,6v98H46V214.362
		l114.684-92.159l118.995,95.624c1.065,0.856,2.392,1.323,3.758,1.323H447V364.15z" />
			<path d="M140,246.15H81c-3.313,0-6,2.687-6,6v59c0,3.313,2.687,6,6,6h59c3.313,0,6-2.687,6-6v-59
		C146,248.836,143.314,246.15,140,246.15z M87,258.15h22v47H87V258.15z M134,305.15h-13v-47h13V305.15z" />
		</g>
	</symbol>
	<symbol id="honey" version="1.1" xmlns="http://www.w3.org/2000/svg" xmlns:xlink="http://www.w3.org/1999/xlink" x="0px" y="0px" viewBox="0 0 413.657 413.657" style="enable-background:new 0 0 413.657 413.657;" xml:space="preserve">
		<path id="XMLID_155_" d="M381.246,131.688l-92.535-50.245c0,0,44.128-5.105,45.327-5.231c12.405-1.305,24.122-2.538,32.402-20.404
	c5.195-11.206,4.855-23.883-0.933-34.78c-5.241-9.871-14.481-17.037-25.346-19.658c-21.191-5.121-29.594,5.019-38.496,15.752
	l-28.857,34.389c-0.328-0.468-0.674-0.922-1.036-1.362c3.217-3.917,5.118-8.918,5.118-14.304c0-12.425-10.107-22.532-22.532-22.532
	H80.782c-12.424,0-22.532,10.108-22.532,22.533c0,5.386,1.901,10.387,5.118,14.303c-3.217,3.916-5.118,8.916-5.118,14.303
	c0,4.298,1.213,8.422,3.443,11.963l-32.161,49.171c-0.865,1.322-1.319,2.872-1.304,4.452c0.083,9.079,4.397,17.278,11.233,23.063
	c-1.654,3.944-2.514,8.188-2.514,12.518v215.517c0,17.934,14.591,32.524,32.525,32.524h196.2c17.934,0,32.524-14.591,32.524-32.524
	V165.616c0-4.326-0.86-8.569-2.517-12.517c6.836-5.785,11.151-13.985,11.235-23.064c0.015-1.623-0.465-3.212-1.375-4.557
	l-17.855-26.387l85.927,46.656c3.882,2.11,8.74,0.671,10.848-3.213C386.567,138.652,385.129,133.796,381.246,131.688z
	 M282.196,381.133c0,9.111-7.413,16.524-16.524,16.524h-196.2c-9.112,0-16.525-7.413-16.525-16.524V165.616
	c0-1.758,0.28-3.486,0.823-5.133c3.111,0.817,6.397,1.256,9.789,1.256c10.116,0,19.459-3.871,26.003-10.296
	c6.543,6.425,15.885,10.296,26.002,10.296c10.118,0,19.46-3.87,26.004-10.296c6.543,6.425,15.886,10.296,26.002,10.296
	c10.117,0,19.46-3.871,26.004-10.295c6.542,6.425,15.885,10.295,26.003,10.295c10.116,0,19.459-3.871,26.002-10.296
	c6.544,6.425,15.887,10.296,26.003,10.296c3.392,0,6.678-0.438,9.789-1.256c0.545,1.648,0.825,3.378,0.825,5.133V381.133z
	 M290.707,132.107c-1.381,7.693-9.457,13.632-19.125,13.632c-8.42,0-16.027-4.665-18.501-11.344
	c-1.162-3.14-4.155-5.223-7.502-5.223c-3.348,0-6.341,2.084-7.503,5.223c-2.472,6.68-10.079,11.344-18.499,11.344
	c-8.422,0-16.029-4.664-18.498-11.342c-1.162-3.141-4.155-5.226-7.503-5.226h-0.001c-3.347,0-6.341,2.084-7.503,5.224
	c-2.472,6.679-10.08,11.344-18.502,11.344c-8.42,0-16.027-4.665-18.5-11.345c-1.162-3.139-4.155-5.223-7.503-5.223
	c-3.347,0-6.34,2.084-7.502,5.224c-2.471,6.679-10.079,11.344-18.501,11.344c-8.42,0-16.027-4.664-18.499-11.343
	c-1.162-3.14-4.155-5.224-7.501-5.224c0,0,0,0-0.001,0c-3.347,0-6.34,2.084-7.502,5.222c-2.474,6.68-10.082,11.345-18.502,11.345
	c-9.694,0-17.787-5.97-19.136-13.693l33.903-51.835c0.456-0.679,4.304-6.096-1.672-10.719c-1.566-1.212-2.405-3.093-2.405-5.044
	c0-2.828,1.912-5.37,4.564-6.225c0.506,0.101,116.886,0.153,116.886,0.153c4.418,0,8-3.582,8-8s-3.582-8-8-8H80.378
	c-0.084,0-0.168,0.001-0.252,0.004c-0.163-0.04-0.328-0.075-0.495-0.105c-3.068-0.555-5.381-3.32-5.381-6.433
	c0-3.602,2.93-6.532,6.532-6.532h173.577c3.602,0,6.532,2.931,6.532,6.533c0,3.111-2.314,5.876-5.383,6.432
	c-3.808,0.688-6.577,4.004-6.576,7.873c0.001,3.87,2.771,7.185,6.578,7.872c3.067,0.554,5.381,3.317,5.381,6.429
	c0,0.78-0.508,2.505-0.561,2.647c-1.018,2.286-3.312,3.885-5.972,3.885H109.26c-4.418,0-8,3.582-8,8s3.582,8,8,8h145.098
	c1.852,0,3.65-0.225,5.373-0.647L290.707,132.107z M281.377,66.186l32.604-38.852c6.452-7.779,9.444-11.388,15.686-11.388
	c1.888,0,4.072,0.331,6.739,0.976c6.419,1.548,11.875,5.779,14.971,11.608c3.418,6.437,3.617,13.925,0.547,20.547
	c-4.464,9.634-8.268,10.034-19.561,11.222C331.11,60.431,281.377,66.186,281.377,66.186z M237.441,224.037l-32.936-19.015
	c-2.475-1.428-5.525-1.429-8,0.001l-28.935,16.705l-28.933-16.705c-2.476-1.43-5.525-1.429-8-0.001l-32.935,19.015
	c-2.475,1.43-4,4.07-4,6.929v38.029c0,2.858,1.525,5.499,4,6.928l28.935,16.707v33.41c0,2.857,1.524,5.499,4,6.928l32.934,19.017
	c1.237,0.715,2.619,1.072,4,1.072s2.762-0.357,4-1.072l32.937-19.017c2.475-1.429,3.999-4.07,3.999-6.928v-33.41l28.936-16.707
	c2.476-1.429,4-4.069,4-6.928v-38.029C241.441,228.107,239.917,225.467,237.441,224.037z M109.702,264.377v-28.792l24.935-14.396
	l24.934,14.396v28.791l-24.934,14.397L109.702,264.377z M192.506,321.422l-24.935,14.397l-24.934-14.397v-28.793l24.933-14.396
	l24.936,14.396V321.422z M225.441,264.377l-24.936,14.396l-24.935-14.396v-28.792l24.935-14.396l24.936,14.396V264.377z" />
	</symbol>
	<symbol version="1.1" id="delivery" xmlns="http://www.w3.org/2000/svg" xmlns:xlink="http://www.w3.org/1999/xlink" x="0px" y="0px" viewBox="0 0 496 496" style="enable-background:new 0 0 496 496;" xml:space="preserve">
		<g>
			<g>
				<g>
					<path d="M313.736,0h-19.472L112,82.848v49.568l16-7.272V224H64v144h272v-32h144V125.152l16,7.272V82.848L313.736,0z M112,240h16
				v32h-16V240z M160,352H80V240h16v48h48v-48h16V352z M320,352H176V240h144V352z M352,320h-16v-96h-80v-48h96V320z M464,320h-96
				V160H240v64h-96V117.88L297.736,48h12.528L464,117.88V320z M480,107.576L313.736,32h-19.472L128,107.576V93.144L297.736,16
				h12.528L480,93.152V107.576z" />
					<path d="M304.304,409.28c-6.024-2.016-12.696-1.424-18.28,1.624l-17.624,9.632l2.424-7.2c2.28-6.768,1.16-14.272-3.008-20.08
				c-4.176-5.784-10.928-9.256-18.072-9.256c-9.152,0-17.256,5.488-20.656,13.984l-10.392,25.984h-24.632l-0.44-0.216l17.296-9.192
				c10.424-5.52,15.496-17.72,12.072-29c-1.968-6.504-6.4-11.8-12.472-14.872c-6.064-3.072-12.944-3.528-19.368-1.28l-65.632,23.024
				l-23.776,15.544H48.168V392H0v16h32.168v72H0v16h48.168v-14.272l30.432,6.088l106.36,0.16l80.784-16.16l41.456-20.16
				c11.168-5.504,15.888-18.72,10.76-30.072C315.32,415.792,310.352,411.304,304.304,409.28z M243.944,403.928
				c1.704-4.296,8.176-5.08,10.864-1.328c1.184,1.656,1.504,3.704,0.848,5.632l-5.296,15.736h-14.44L243.944,403.928z
				 M300.12,437.312l-38.544,19.016l-78.184,15.64H80.96l-32.792-6.56v-41.44h58.424l25.176-16.784l64.68-22.696
				c2.264-0.784,4.704-0.632,6.832,0.456c2.144,1.088,3.704,2.952,4.4,5.248c1.208,3.976-0.576,8.272-4.256,10.224l-44.704,23.768
				l31.56,15.784h75.936l27.48-15.016c1.712-0.944,3.68-1.136,5.536-0.496c1.856,0.616,3.336,1.944,4.144,3.728
				C304.936,431.632,303.504,435.64,300.12,437.312z" />
					<rect x="288" y="320" width="16" height="16" />
					<rect x="240" y="320" width="32" height="16" />
					<rect x="224" y="288" width="80" height="16" />
				</g>
			</g>
		</g>
	</symbol>
	<symbol version="1.1" id="hive" xmlns="http://www.w3.org/2000/svg" xmlns:xlink="http://www.w3.org/1999/xlink" x="0px" y="0px" viewBox="0 0 512 512" style="enable-background:new 0 0 512 512;" xml:space="preserve">
		<g>
			<g>
				<path d="M473.159,324.855l-34.428-95.338H73.269l-34.428,95.338c-1.766,4.414-0.883,9.71,1.766,13.241
			c2.648,3.531,7.062,6.179,11.476,6.179h407.834c4.414,0,8.828-2.648,11.476-6.179
			C474.041,333.683,474.924,329.269,473.159,324.855z M56.497,326.621l29.131-79.448H425.49l29.131,79.448H56.497z" />
			</g>
		</g>
		<g>
			<g>
				<path d="M473.159,227.752l-34.428-95.338H73.269l-34.428,95.338c-1.766,4.414-0.883,9.71,1.766,13.241
			c2.648,3.531,7.062,6.179,11.476,6.179h407.834c4.414,0,8.828-2.648,11.476-6.179
			C474.041,236.579,474.924,232.166,473.159,227.752z M56.497,229.517l29.131-79.448H425.49l29.131,79.448H56.497z" />
			</g>
		</g>
		<g>
			<g>
				<path d="M473.159,421.959l-34.428-95.338H73.269l-34.428,95.338c-1.766,4.414-0.883,9.71,1.766,13.241
			c2.648,3.531,7.062,6.179,11.476,6.179h407.834c4.414,0,8.828-2.648,11.476-6.179
			C474.041,430.786,474.924,426.372,473.159,421.959z M56.497,423.724l29.131-79.448H425.49l29.131,79.448H56.497z" />
			</g>
		</g>
		<g>
			<g>
				<path d="M473.159,130.648L438.731,35.31H73.269l-34.428,95.338c-1.766,4.414-0.883,9.71,1.766,13.241
			c2.648,3.531,7.062,6.179,11.476,6.179h407.834c4.414,0,8.828-2.648,11.476-6.179
			C474.041,139.476,474.924,135.062,473.159,130.648z M56.497,132.414l29.131-79.448H425.49l29.131,79.448H56.497z" />
			</g>
		</g>
		<g>
			<g>
				<path d="M467.862,0H44.138c-9.71,0-17.655,7.945-17.655,17.655V35.31c0,9.71,7.945,17.655,17.655,17.655h423.724
			c9.71,0,17.655-7.945,17.655-17.655V17.655C485.517,7.945,477.572,0,467.862,0z M467.862,35.31H44.138V17.655h423.724V35.31z" />
			</g>
		</g>
		<g>
			<g>
				<path d="M158.897,423.724v8.828c0,24.717,19.421,44.138,44.138,44.138h105.931c24.717,0,44.138-19.421,44.138-44.138v-8.828
			H158.897z M308.966,459.034H203.035c-11.476,0-21.186-7.062-24.717-17.655h155.365
			C330.152,451.972,320.441,459.034,308.966,459.034z" />
			</g>
		</g>
		<g>
			<g>
				<polygon points="123.586,432.552 123.586,494.345 105.931,494.345 105.931,432.552 88.276,432.552 88.276,512 141.241,512 
			141.241,432.552 		" />
			</g>
		</g>
		<g>
			<g>
				<polygon points="406.069,432.552 406.069,494.345 388.414,494.345 388.414,432.552 370.759,432.552 370.759,512 423.724,512 
			423.724,432.552 		" />
			</g>
		</g>
	</symbol>
</svg>
