<svg>
	<symbol id="star" xmlns="http://www.w3.org/2000/svg" viewBox="0 0 243.3 243.3" style="enable-background: new 0 0 243.317 243.317" xml:space="preserve">
		<path d="M243 94c-1-3-3-5-6-5l-75-11-34-68a8 8 0 0 0-13 0L81 78 6 89a8 8 0 0 0-4 12l55 53-13 75a8 8 0 0 0 11 8l67-35 67 35 3 1a8 8 0 0 0 8-10l-13-74 54-53c2-2 3-5 2-7zm-69 52c-2 2-3 5-3 7l11 64-57-30c-2-2-5-2-7 0l-57 30 11-64c0-2 0-5-2-7l-46-45 63-9c3 0 5-2 6-4l29-58 28 58c1 2 3 4 6 4l64 9-46 45z" />
	</symbol>
	<symbol id="smile" xmlns="http://www.w3.org/2000/svg" viewBox="0 0 44 44" style="enable-background: new 0 0 44 44" xml:space="preserve">
		<path d="M22 0C9.869 0 0 9.869 0 22s9.869 22 22 22 22-9.869 22-22S34.131 0 22 0zm0 42C10.972 42 2 33.028 2 22S10.972 2 22 2s20 8.972 20 20-8.972 20-20 20z" />
		<circle cx="13.5" cy="14.5" r="3.5" />
		<circle cx="29.5" cy="14.5" r="3.5" />
		<path d="M33 24a1 1 0 0 0-1 1c0 5.514-4.486 10-10 10s-10-4.486-10-10a1 1 0 0 0-2 0c0 6.617 5.383 12 12 12s12-5.383 12-12a1 1 0 0 0-1-1z" />
	</symbol>
	<symbol id="tree" xmlns="http://www.w3.org/2000/svg" viewBox="0 0 470 470" style="enable-background: new 0 0 470 470" xml:space="preserve">
		<path d="M350.851 146.286a119.425 119.425 0 0 0 3.153-27.282C354.003 53.385 300.619 0 235 0S115.997 53.385 115.997 119.004c0 9.206 1.06 18.365 3.153 27.282-21.612 26.559-33.469 59.853-33.469 94.203 0 34.339 11.945 67.867 33.634 94.409 21.383 26.167 51.252 44.475 84.106 51.552a7.5 7.5 0 0 0 3.158-14.664c-61.362-13.217-105.898-68.435-105.898-131.298 0-32.077 11.495-63.132 32.366-87.443a7.5 7.5 0 0 0 1.55-6.842 104.289 104.289 0 0 1-3.6-27.2C130.997 61.656 177.652 15 235 15s104.003 46.656 104.003 104.004c0 9.208-1.211 18.36-3.6 27.2a7.5 7.5 0 0 0 1.55 6.842c20.872 24.311 32.366 55.366 32.366 87.443 0 62.862-44.537 118.081-105.898 131.298a7.5 7.5 0 0 0 3.158 14.663c32.854-7.076 62.723-25.385 84.106-51.552 21.689-26.542 33.634-60.071 33.634-94.409 0-34.35-11.857-67.644-33.468-94.203z" />
		<path d="M297.007 266.39a7.5 7.5 0 0 0 0-10.606 7.5 7.5 0 0 0-10.606 0l-43.901 43.9V129.3a7.5 7.5 0 0 0-15 0v108.397l-43.9-43.9a7.5 7.5 0 0 0-10.606 0 7.5 7.5 0 0 0 0 10.606l54.507 54.507V462.5a7.5 7.5 0 0 0 15 0V320.897l54.506-54.507zM162.5 290.5c0 4.411 3.589 8 8 8s8-3.589 8-8-3.589-8-8-8-8 3.589-8 8zM299.704 104c0-4.411-3.589-8-8-8s-8 3.589-8 8 3.589 8 8 8 8-3.589 8-8zM281 74.5c0-4.411-3.589-8-8-8s-8 3.589-8 8 3.589 8 8 8 8-3.589 8-8z" />
	</symbol>
	<symbol id="chat" xmlns="http://www.w3.org/2000/svg" viewBox="0 0 58 58" style="enable-background: new 0 0 58 58" xml:space="preserve">
		<path d="M29 1.5c-16.016 0-29 11.641-29 26 0 5.292 1.768 10.211 4.796 14.318C4.398 46.563 3.254 53.246 0 56.5c0 0 9.943-1.395 16.677-5.462l.022.009c2.764-1.801 5.532-3.656 6.105-4.126.3-.421.879-.548 1.33-.277.296.178.483.503.489.848.01.622-.005.784-5.585 4.421A31.914 31.914 0 0 0 29 53.5c16.016 0 29-11.641 29-26s-12.984-26-29-26z" />
	</symbol>
	<symbol id="bike" viewBox="0 0 24 24" xmlns="http://www.w3.org/2000/svg" aria-labelledby="bikeIconTitle" stroke="#000000" stroke-width="2" stroke-linecap="round" stroke-linejoin="round" color="#000000">
		<circle cx="14" cy="6" r="1" />
		<path d="M12 18V14L9 12L12 9L14 11L16 12" />
		<circle cx="6" cy="17" r="3" />
		<circle cx="18" cy="17" r="3" />
	</symbol>
	<symbol id="package" version="1.1" xmlns="http://www.w3.org/2000/svg" viewBox="0 0 489.9 489.9" xmlns:xlink="http://www.w3.org/1999/xlink" enable-background="new 0 0 489.9 489.9">
		<path d="m484.7,87.75l-88.7-84.6c-2.1-2.1-4.2-3.1-7.3-3.1h-287.6c-3.1,0-5.2,1-7.3,3.1l-88.7,84.6c-2.4,2.9-5.1,7-5.1,13.4v378.3c0,6.3 4.2,10.4 10.4,10.4h469.1c6.3,0 10.4-4.2 10.4-10.4v-379.3c0-2.4-1.1-8.2-5.2-12.4zm-229.4-66.9h129.3l68.8,65.7h-198.1v-65.7zm-150.1,0h129.3v65.7h-198.1l68.8-65.7zm-84.4,215.8h89.6v104.2h-89.6c3.55271e-15,0 3.55271e-15-104.2 3.55271e-15-104.2zm448.2,104.2h-89.6v-104.2h89.6v104.2zm0-125.1h-100.1c-6.3,0-10.4,4.2-10.4,10.4v125.1c0,6.3 4.2,10.4 10.4,10.4h100.1v107.4h-448.2v-107.4h100.1c5.2,0 10.4-5.2 10.4-10.4v-125.1c0-6.3-4.2-10.4-10.4-10.4h-100.1v-108.4h448.2v108.4z" />
	</symbol>
	<symbol id="money" version="1.1" xmlns="http://www.w3.org/2000/svg" xmlns:xlink="http://www.w3.org/1999/xlink" x="0px" y="0px" viewBox="0 0 489.003 489.003" style="enable-background:new 0 0 489.003 489.003;" xml:space="preserve">
		<path d="M305.802,156.814c-33.8-19.5-88.4-19.5-122,0s-33.4,51.2,0.4,70.7s88.4,19.5,122,0
                        C339.802,207.914,339.602,176.314,305.802,156.814z M290.302,187.514c-2.9,0.9-5.8,1.9-8.7,2.8c-1.8,0.5-2.9,0.6-3.7,0.2
                        c-0.4-0.3-0.8-0.7-1.2-1.3c-1.9-3.1-4.8-5.8-8.7-8c-0.5-0.3-1.1-0.6-1.7-0.9c-1.3-0.7-2.5-1.2-4.1-1.6c-5.6-1.3-10.6,0.8-9.9,4.3
                        c0.3,1.8,1.3,3.4,2.5,5.1c2,2.8,4.2,5.6,5.6,8.6c4.7,9.4-5.5,18.7-21.9,19.6c-5.9,0.3-11.5-0.4-16.7-2.1c-2.3-0.7-4-0.7-5.7,0.5
                        c-1.7,1.1-3.6,2.1-5.4,3.1c-1.6,0.9-3.3,1-4.9,0.1c-1.2-0.6-2.3-1.3-3.5-1.9c-0.8-0.5-1.6-0.9-2.4-1.4c-1.7-1-1.5-2,0.1-3
                        c1.3-0.8,2.6-1.5,3.8-2.3c2.9-1.7,2.9-1.8,0.5-3.7c-3-2.4-5.7-4.9-7.4-7.7c-1.3-2.2-1-2.7,2.5-3.9c2.6-0.8,5.1-1.7,7.7-2.5
                        c1.9-0.6,3-0.7,3.8-0.3c0.5,0.3,0.8,0.7,1.2,1.4c1.7,3.2,4.6,6,8.1,8.7c0.6,0.5,1.3,0.9,1.9,1.3c1.9,1.1,4.1,1.9,6.6,2.5
                        c6.5,1.5,12.3-1.1,11.7-5.2c-0.2-1.4-0.9-2.6-1.8-3.9c-2.2-3.3-5.1-6.4-6.6-9.9c-2.4-5.6-1.3-10.7,6.4-14.7c8.8-4.5,18.6-4.8,29-2
                        c4.3,1.2,4.2,1.2,7.5-0.7c1.1-0.7,2.2-1.3,3.3-1.9c2.5-1.4,3.4-1.4,5.9,0c0.8,0.4,1.5,0.9,2.3,1.3c5.3,3,5.3,3,0.1,6.1
                        c-3.7,2.1-3.7,2.1-0.6,4.6c2.4,1.9,4.3,3.9,5.7,6.1C292.702,186.014,292.302,186.914,290.302,187.514z M350.902,253.314
                        c-9.3,5.4-24.4,5.4-33.8,0c-9.3-5.4-9.4-14.2-0.1-19.6c9.3-5.4,24.4-5.4,33.8,0C360.202,239.114,360.302,247.914,350.902,253.314z
                         M172.902,150.514c-9.3,5.4-24.4,5.4-33.8,0c-9.4-5.4-9.4-14.2-0.1-19.6c9.3-5.4,24.4-5.4,33.8,0
                        C182.102,136.314,182.202,145.114,172.902,150.514z M477.402,211.414l-266.5-153.9c-15.4-8.9-40.4-8.9-55.7,0l-142.9,83
                        c-15.3,8.9-15.2,23.4,0.2,32.3l266.5,153.9c15.4,8.9,40.4,8.9,55.7,0l142.8-83C492.902,234.814,492.802,220.314,477.402,211.414z
                         M337.602,297.414c-1.7-1.6-3.7-3.1-6.1-4.5c-15.6-9-40.9-9-56.4,0c-1.2,0.7-2.2,1.4-3.3,2.2l-206.9-119.5c2-0.8,3.9-1.7,5.7-2.7
                        c15.5-9,15.4-23.6-0.2-32.6c-1.7-1-3.5-1.9-5.4-2.6l85.3-49.6c1.3,1.1,2.8,2.1,4.5,3.1c15.6,9,40.9,9,56.4,0c1.8-1,3.3-2.1,4.7-3.3
                        l207.6,119.8c-2.8,1-5.3,2.1-7.7,3.5c-15.5,9-15.5,23.7,0.2,32.7c2.4,1.4,5.1,2.5,7.9,3.5L337.602,297.414z M5.502,203.614
                        c6.8-3.5,17.3-3,23.8,0.8l278.6,160.8l150.6-87.6c6.5-3.8,17.2-3.8,23.8,0c6.6,3.8,6.6,10,0.1,13.8l-160.1,93
                        c-7.8,4.6-20.6,4.6-28.5,0l-5.6-3.2l-3.9-2.3l-279.3-161.2C-1.798,213.814-1.698,207.314,5.502,203.614z M482.602,341.714
                        l-160.1,93c-7.8,4.6-20.6,4.6-28.5,0l-5.5-3.2l-4-2.3l-279.3-161.2c-6.8-3.9-6.6-10.4,0.6-14.1c6.7-3.5,17.3-3,23.8,0.8
                        l278.5,160.8l150.6-87.5c6.6-3.8,17.2-3.8,23.8,0C489.102,331.714,489.202,337.914,482.602,341.714z" />
	</symbol>
	<symbol id="card" version="1.1" xmlns="http://www.w3.org/2000/svg" xmlns:xlink="http://www.w3.org/1999/xlink" x="0px" y="0px" viewBox="0 0 92 92" enable-background="new 0 0 92 92" xml:space="preserve">
		<path id="XMLID_2192_" d="M92,23.4c0-4.1-3.3-7.4-7.4-7.4H7.4C3.3,16,0,19.3,0,23.4v45.3C0,72.7,3.3,76,7.4,76h77.3
                    c4.1,0,7.4-3.3,7.4-7.4V23.4z M84,24v7H8v-7H84z M8,68V43h76v25H8z M76.5,55c0,2.2-1.8,4-4,4h-19c-2.2,0-4-1.8-4-4s1.8-4,4-4h19
                    C74.7,51,76.5,52.8,76.5,55z" />
	</symbol>
	<symbol id="inst" xmlns="http://www.w3.org/2000/svg" viewBox="0 0 48 48" style="enable-background: new 0 0 48 48" xml:space="preserve">
		<path d="M40.4 5.5h-4.8A2.602 2.602 0 0 0 33 8.1v4.8c0 1.434 1.166 2.6 2.6 2.6h4.8c1.434 0 2.6-1.166 2.6-2.6V8.1c0-1.434-1.166-2.6-2.6-2.6zm.6 7.4a.6.6 0 0 1-.6.6h-4.8a.6.6 0 0 1-.6-.6V8.1a.6.6 0 0 1 .6-.6h4.8a.6.6 0 0 1 .6.6v4.8z" />
		<path d="M37.8.5H10.2C4.576.5 0 5.089 0 10.731V37.27C0 42.911 4.576 47.5 10.2 47.5h27.6c5.624 0 10.2-4.589 10.2-10.23V10.731C48 5.089 43.424.5 37.8.5zM46 37.27c0 4.538-3.679 8.23-8.2 8.23H10.2c-4.522 0-8.2-3.692-8.2-8.23V19.5h12.221A13.948 13.948 0 0 0 10 29.5c0 7.72 6.28 14 14 14s14-6.28 14-14c0-3.916-1.62-7.457-4.221-10H46v17.77zM36 29.5c0 6.617-5.383 12-12 12s-12-5.383-12-12 5.383-12 12-12 12 5.383 12 12zm-4.826-12c-2.101-1.261-4.55-2-7.174-2s-5.073.739-7.174 2H2v-6.769C2 6.192 5.679 2.5 10.2 2.5h27.6c4.521 0 8.2 3.692 8.2 8.231V17.5H31.174z" />
		<path d="M15 29.5c0 4.962 4.037 9 9 9s9-4.038 9-9-4.037-9-9-9-9 4.038-9 9zm16 0c0 3.86-3.141 7-7 7s-7-3.14-7-7 3.141-7 7-7 7 3.14 7 7z" />
	</symbol>
	<symbol id="favourite-mark" version="1.1" xmlns="http://www.w3.org/2000/svg" xmlns:xlink="http://www.w3.org/1999/xlink" x="0px" y="0px" viewBox="0 0 55.867 55.867" style="enable-background:new 0 0 55.867 55.867;" xml:space="preserve">
		<path d="M55.818,21.578c-0.118-0.362-0.431-0.626-0.808-0.681L36.92,18.268L28.83,1.876c-0.168-0.342-0.516-0.558-0.896-0.558
	s-0.729,0.216-0.896,0.558l-8.091,16.393l-18.09,2.629c-0.377,0.055-0.689,0.318-0.808,0.681c-0.117,0.361-0.02,0.759,0.253,1.024
	l13.091,12.76l-3.091,18.018c-0.064,0.375,0.09,0.754,0.397,0.978c0.309,0.226,0.718,0.255,1.053,0.076l16.182-8.506l16.18,8.506
	c0.146,0.077,0.307,0.115,0.466,0.115c0.207,0,0.413-0.064,0.588-0.191c0.308-0.224,0.462-0.603,0.397-0.978l-3.09-18.017
	l13.091-12.761C55.838,22.336,55.936,21.939,55.818,21.578z" />
	</symbol>
	<symbol id="logo" version="1.1" xmlns="http://www.w3.org/2000/svg" xmlns:xlink="http://www.w3.org/1999/xlink" x="0px" y="0px" viewBox="0 0 56 56" style="enable-background:new 0 0 56 56;" xml:space="preserve">
		<g>
			<circle cx="18.264" cy="29.609" r="1" />
			<circle cx="18.28" cy="34.609" r="1" />
			<circle cx="22.466" cy="30.195" r="1" />
			<circle cx="15.065" cy="45" r="1" />
			<circle cx="21.065" cy="50" r="1" />
			<circle cx="16.065" cy="50" r="1" />
			<circle cx="14.065" cy="38" r="1" />
			<circle cx="17.065" cy="40" r="1" />
			<circle cx="14.065" cy="33" r="1" />
			<circle cx="14.065" cy="27" r="1" />
			<circle cx="33.065" cy="26" r="1" />
			<circle cx="28.065" cy="27" r="1" />
			<circle cx="19.065" cy="25" r="1" />
			<circle cx="35.065" cy="22" r="1" />
			<circle cx="38.065" cy="25" r="1" />
			<circle cx="43.065" cy="23" r="1" />
			<circle cx="41.065" cy="29" r="1" />
			<circle cx="24.453" cy="26.189" r="1" />
			<path d="M39.343,32.743l-4.86-4.86l-6.662,1.813l-1.514,5.567l-5.539,1.506l-1.812,6.661l4.86,4.86l5.55-1.509l4.017,4.017
		l6.662-1.813l1.812-6.661L37.831,38.3L39.343,32.743z M29.45,31.324l4.438-1.207l3.22,3.22l-1.203,4.424l-4.452,1.211l-3.209-3.209
		L29.45,31.324z M21.191,42.836l1.207-4.438l4.438-1.206l3.197,3.197l-1.217,4.47l-4.405,1.197L21.191,42.836z M38.415,47.356
		l-4.438,1.207l-3.196-3.197l1.212-4.456l4.42-1.203l3.209,3.209L38.415,47.356z" />
			<path d="M43.286,10.39c-1.898-0.679-2.887-1.11-3.136-1.855c1.869-0.45,3.262-2.137,3.262-4.142V4.26c0-2.349-1.911-4.26-4.26-4.26
		H16.847c-2.349,0-4.26,1.911-4.26,4.26v0.133c0,1.992,1.375,3.669,3.265,4.133c-0.244,0.751-1.232,1.183-3.139,1.864
		c-2.861,1.023-6.779,2.425-6.779,7.709v1.749c0,0.332,0.165,0.642,0.439,0.828c0.274,0.185,0.624,0.224,0.932,0.101l0.846-0.338
		v25.267C8.152,51.382,12.77,56,18.447,56h19.106c5.677,0,10.295-4.618,10.295-10.295V22.37c0.224-0.058,0.446-0.131,0.656-0.244
		c0.963-0.516,1.561-1.514,1.561-2.605v-1.422C50.065,12.814,46.147,11.413,43.286,10.39z M45.848,45.705
		c0,4.574-3.721,8.295-8.295,8.295H18.447c-4.574,0-8.295-3.721-8.295-8.295V19.638l1.151-0.46c0.437-0.176,0.931-0.008,1.174,0.396
		l1.354,2.256c0.43,0.716,1.146,1.219,1.966,1.38c0.188,0.036,0.378,0.055,0.567,0.055c0.012,0,0.024-0.003,0.036-0.003
		c0.026,0,0.052-0.005,0.079-0.006c0.161-0.006,0.32-0.026,0.478-0.058c0.053-0.011,0.105-0.025,0.158-0.039
		c0.133-0.035,0.263-0.079,0.391-0.133c0.05-0.021,0.101-0.04,0.15-0.063c0.168-0.082,0.332-0.175,0.484-0.289l1.344-1.008
		c0.378-0.282,0.915-0.245,1.248,0.089l0.533,0.533c0.606,0.606,1.441,0.926,2.299,0.857c0.855-0.061,1.641-0.488,2.155-1.175
		l0.409-0.545c0.365-0.484,1.114-0.553,1.58,0.068c0.585,0.779,1.513,1.224,2.489,1.179c0.974-0.041,1.864-0.56,2.381-1.386
		l1.933-3.094c0.197-0.315,0.532-0.495,0.905-0.444c0.37,0.037,0.669,0.267,0.799,0.614l0.682,1.82
		c0.385,1.026,1.263,1.732,2.349,1.888c1.086,0.152,2.125-0.274,2.785-1.154l0.072-0.097c0.304-0.405,0.872-0.503,1.294-0.222
		l2.073,1.382c0.121,0.081,0.246,0.15,0.377,0.211V45.705z M48.065,19.521c0,0.517-0.353,0.761-0.505,0.842
		c-0.081,0.044-0.236,0.104-0.426,0.112l-0.152-0.021c-0.071-0.01-0.132-0.025-0.19-0.043c-0.07-0.025-0.14-0.046-0.212-0.095
		l-2.073-1.382c-0.326-0.218-0.68-0.362-1.043-0.436c-1.089-0.224-2.256,0.181-2.963,1.124l-0.072,0.097
		c-0.307,0.409-0.733,0.395-0.9,0.373c-0.168-0.024-0.58-0.133-0.759-0.61l-0.682-1.82c-0.398-1.061-1.345-1.789-2.473-1.902
		c-1.122-0.104-2.2,0.414-2.801,1.374l-1.933,3.094c-0.17,0.271-0.45,0.435-0.77,0.448c-0.311,0-0.613-0.126-0.855-0.448
		c-0.563-0.752-1.425-1.183-2.364-1.183s-1.801,0.431-2.364,1.183l-0.409,0.544c-0.169,0.226-0.417,0.36-0.697,0.381
		c-0.28,0.018-0.545-0.078-0.743-0.277l-0.533-0.533c-1.033-1.032-2.694-1.152-3.863-0.274l-1.343,1.008
		c-0.22,0.164-0.49,0.223-0.757,0.173c-0.269-0.053-0.495-0.211-0.636-0.446l-1.354-2.256c-0.123-0.205-0.273-0.382-0.433-0.546
		c-0.041-0.042-0.083-0.081-0.126-0.12c-0.152-0.138-0.314-0.262-0.489-0.364c-0.02-0.011-0.037-0.027-0.057-0.038
		c-0.193-0.107-0.398-0.185-0.609-0.246c-0.056-0.016-0.112-0.028-0.17-0.041c-0.182-0.041-0.367-0.066-0.555-0.072
		c-0.03-0.001-0.059-0.011-0.089-0.011c-0.012,0-0.025,0.003-0.037,0.003c-0.113,0.001-0.226,0.018-0.339,0.032
		c-0.066,0.009-0.132,0.009-0.198,0.022c-0.179,0.035-0.357,0.086-0.532,0.156l-2.625,1.051v-0.272c0-3.875,2.648-4.822,5.453-5.826
		c1.96-0.701,4.137-1.506,4.46-3.62h2.489c0.552,0,1-0.447,1-1s-0.448-1-1-1h-3.423c-0.012,0-0.021,0.006-0.033,0.007
		c-0.011,0-0.022-0.007-0.033-0.007c-1.246,0-2.26-1.014-2.26-2.26V4.26c0-1.246,1.014-2.26,2.26-2.26h22.306
		c1.246,0,2.26,1.014,2.26,2.26v0.133c0,1.246-1.014,2.26-2.326,2.26H26.862c-0.552,0-1,0.447-1,1s0.448,1,1,1h11.29
		c0.323,2.115,2.5,2.919,4.46,3.62c2.804,1.004,5.453,1.951,5.453,5.826V19.521z" />
		</g>
	</symbol>
	<symbol id="emptyStar" xmlns="http://www.w3.org/2000/svg" xmlns:xlink="http://www.w3.org/1999/xlink" version="1.1" x="0px" y="0px" viewBox="0 0 243.317 243.317" style="enable-background:new 0 0 243.317 243.317;" xml:space="preserve">
		<path d="M242.949,93.714c-0.882-2.715-3.229-4.694-6.054-5.104l-74.98-10.9l-33.53-67.941c-1.264-2.56-3.871-4.181-6.725-4.181  c-2.855,0-5.462,1.621-6.726,4.181L81.404,77.71L6.422,88.61C3.596,89.021,1.249,91,0.367,93.714  c-0.882,2.715-0.147,5.695,1.898,7.688l54.257,52.886L43.715,228.96c-0.482,2.814,0.674,5.658,2.983,7.335  c2.309,1.678,5.371,1.9,7.898,0.571l67.064-35.254l67.063,35.254c1.097,0.577,2.296,0.861,3.489,0.861c0.007,0,0.014,0,0.021,0  c0,0,0,0,0.001,0c4.142,0,7.5-3.358,7.5-7.5c0-0.629-0.078-1.24-0.223-1.824l-12.713-74.117l54.254-52.885  C243.096,99.41,243.832,96.429,242.949,93.714z M173.504,146.299c-1.768,1.723-2.575,4.206-2.157,6.639l10.906,63.581  l-57.102-30.018c-2.185-1.149-4.795-1.149-6.979,0l-57.103,30.018l10.906-63.581c0.418-2.433-0.389-4.915-2.157-6.639  l-46.199-45.031l63.847-9.281c2.443-0.355,4.555-1.889,5.647-4.103l28.55-57.849l28.55,57.849c1.092,2.213,3.204,3.748,5.646,4.103  l63.844,9.281L173.504,146.299z" />
	</symbol>
</svg>
